# xmcd CD database file
#
# Track frame offsets:
#	150
#	12020
#	25961
#	39583
#	51575
#	62268
#	70877
#	92136
#	111010
#	130925
#	149539
#	163098
#
# Disc length: 2322 seconds
#
# Revision: 1
# Processed by: cddbd v1.5.2PL0 Copyright (c) Steve Scherf et al.
# Submitted via: CDex 2.14
#
DISCID=a509100c
DTITLE=Steve Lee - I Like Guns
DYEAR=2010
DGENRE=Country
TTITLE0=I Like Guns
TTITLE1=The Shoot Out
TTITLE2=Time To Get A Gun
TTITLE3=Pistol In My Hand
TTITLE4=Devil's Right Hand
TTITLE5=Gun Shy Dog
TTITLE6=Rock Salt and Nails
TTITLE7=I'll Give Up My Gun
TTITLE8=Modern Day Bonnie And Clyde
TTITLE9=Dont Take Your Guns To Town
TTITLE10=7 Shells
TTITLE11=She Don't Like Guns
EXTD=YEAR: 2010
EXTT0=
EXTT1=
EXTT2=
EXTT3=
EXTT4=
EXTT5=
EXTT6=
EXTT7=
EXTT8=
EXTT9=
EXTT10=
EXTT11=
PLAYORDER=
